<svg xmlns="http://www.w3.org/2000/svg" xmlns:xlink="http://www.w3.org/1999/xlink" viewBox="0 0 116.77 56.06"><defs><style>.cls-1{isolation:isolate;}.cls-2{fill:url(#radial-gradient);}.cls-3{fill:url(#radial-gradient-2);}.cls-4{fill:url(#radial-gradient-3);}.cls-5{fill:url(#radial-gradient-4);}.cls-6{fill:url(#radial-gradient-5);}.cls-7{fill:url(#radial-gradient-6);}.cls-8{fill:url(#radial-gradient-7);}.cls-9{fill:url(#radial-gradient-8);}.cls-10{fill:url(#radial-gradient-9);}.cls-11{fill:url(#radial-gradient-10);}.cls-12{fill:url(#radial-gradient-11);}.cls-13{fill:url(#radial-gradient-12);}.cls-14{fill:url(#radial-gradient-13);}.cls-15{fill:url(#radial-gradient-14);}.cls-16{fill:url(#radial-gradient-15);}.cls-17{fill:url(#radial-gradient-16);}.cls-18{fill:url(#radial-gradient-17);}.cls-19{fill:url(#radial-gradient-18);}.cls-20{fill:url(#radial-gradient-19);}.cls-21{fill:url(#radial-gradient-20);}.cls-22{fill:url(#radial-gradient-21);}.cls-23{fill:url(#linear-gradient);}.cls-24{fill:url(#linear-gradient-2);}.cls-25{fill:url(#linear-gradient-3);}.cls-26{fill:url(#linear-gradient-4);}.cls-27{fill:url(#linear-gradient-5);}.cls-28{fill:url(#linear-gradient-6);}.cls-29{fill:url(#radial-gradient-22);}.cls-30{fill:url(#radial-gradient-23);}.cls-31{mix-blend-mode:screen;fill:url(#linear-gradient-7);}.cls-32{fill:url(#linear-gradient-8);}.cls-33{fill:url(#linear-gradient-9);}.cls-34{fill:url(#linear-gradient-10);}.cls-35{fill:url(#linear-gradient-11);}.cls-36{fill:url(#linear-gradient-12);}.cls-37{fill:url(#linear-gradient-13);}.cls-38{fill:url(#linear-gradient-14);}.cls-39{fill:url(#linear-gradient-15);}.cls-40{fill:#595959;}.cls-41{fill:#9e9e9e;}.cls-42{fill:url(#linear-gradient-16);}.cls-43{fill:url(#radial-gradient-24);}.cls-44{fill:url(#radial-gradient-25);}.cls-45{fill:url(#radial-gradient-26);}.cls-46{fill:url(#radial-gradient-27);}.cls-47{fill:url(#linear-gradient-17);}</style><radialGradient id="radial-gradient" cx="163.92" cy="48.08" r="44.69" gradientTransform="translate(43.75 293.66) rotate(-90) scale(0.94 1)" gradientUnits="userSpaceOnUse"><stop offset="0" stop-color="#f7f7f7"/><stop offset="1" stop-color="#a8abaa"/></radialGradient><radialGradient id="radial-gradient-2" cx="209.57" cy="-5857.79" r="0.01" gradientTransform="translate(21572.59 331.39) rotate(-90) scale(1 3.67)" gradientUnits="userSpaceOnUse"><stop offset="0" stop-color="#fff"/><stop offset="1" stop-color="#d2d6d5"/></radialGradient><radialGradient id="radial-gradient-3" cx="210.18" cy="-5857.78" r="0" xlink:href="#radial-gradient-2"/><radialGradient id="radial-gradient-4" cx="177.9" cy="-5858.07" r="0.03" xlink:href="#radial-gradient-2"/><radialGradient id="radial-gradient-5" cx="207.81" cy="-5857.98" r="0.02" xlink:href="#radial-gradient-2"/><radialGradient id="radial-gradient-6" cx="178.38" cy="-5858.34" r="0.03" xlink:href="#radial-gradient-2"/><radialGradient id="radial-gradient-7" cx="178.51" cy="-5858.48" r="0.03" xlink:href="#radial-gradient-2"/><radialGradient id="radial-gradient-8" cx="192.31" cy="-5860.69" r="26.95" xlink:href="#radial-gradient-2"/><radialGradient id="radial-gradient-9" cx="177.61" cy="-5857.98" r="0.03" xlink:href="#radial-gradient-2"/><radialGradient id="radial-gradient-10" cx="178.18" cy="-5858.2" r="0.01" xlink:href="#radial-gradient-2"/><radialGradient id="radial-gradient-11" cx="208.39" cy="-5857.89" r="0.02" xlink:href="#radial-gradient-2"/><radialGradient id="radial-gradient-12" cx="174.55" cy="-5857.62" r="0" xlink:href="#radial-gradient-2"/><radialGradient id="radial-gradient-13" cx="174.06" cy="-5857.62" r="0" xlink:href="#radial-gradient-2"/><radialGradient id="radial-gradient-14" cx="175.03" cy="-5857.63" r="0.02" xlink:href="#radial-gradient-2"/><radialGradient id="radial-gradient-15" cx="177.26" cy="-5857.88" r="0.01" xlink:href="#radial-gradient-2"/><radialGradient id="radial-gradient-16" cx="173.59" cy="-5857.64" r="0.01" xlink:href="#radial-gradient-2"/><radialGradient id="radial-gradient-17" cx="173.14" cy="-5857.68" r="0" xlink:href="#radial-gradient-2"/><radialGradient id="radial-gradient-18" cx="175.49" cy="-5857.65" r="0.01" xlink:href="#radial-gradient-2"/><radialGradient id="radial-gradient-19" cx="176.83" cy="-5857.8" r="0.02" xlink:href="#radial-gradient-2"/><radialGradient id="radial-gradient-20" cx="176.43" cy="-5857.74" r="0.03" xlink:href="#radial-gradient-2"/><radialGradient id="radial-gradient-21" cx="175.99" cy="-5857.69" r="0.01" xlink:href="#radial-gradient-2"/><linearGradient id="linear-gradient" x1="192.31" y1="-10.65" x2="192.31" y2="-3.51" gradientTransform="translate(43.75 331.39) rotate(-90)" gradientUnits="userSpaceOnUse"><stop offset="0" stop-color="#f7f7f7"/><stop offset="0.48" stop-color="#a8abaa"/><stop offset="1" stop-color="#fff"/></linearGradient><linearGradient id="linear-gradient-2" x1="175.01" y1="38.75" x2="209.62" y2="38.75" gradientTransform="translate(43.75 331.39) rotate(-90)" gradientUnits="userSpaceOnUse"><stop offset="0"/><stop offset="1" stop-color="#1b1c1c"/></linearGradient><linearGradient id="linear-gradient-3" x1="172.27" y1="20.35" x2="212.35" y2="20.35" xlink:href="#linear-gradient-2"/><linearGradient id="linear-gradient-4" x1="172.45" y1="29.06" x2="212.17" y2="29.06" gradientTransform="translate(43.75 331.39) rotate(-90)" gradientUnits="userSpaceOnUse"><stop offset="0" stop-color="#363b39"/><stop offset="1" stop-color="#1b1c1c"/></linearGradient><linearGradient id="linear-gradient-5" x1="170.91" y1="40.65" x2="174.83" y2="40.65" xlink:href="#linear-gradient-4"/><linearGradient id="linear-gradient-6" x1="209.79" y1="40.65" x2="213.71" y2="40.65" xlink:href="#linear-gradient-4"/><radialGradient id="radial-gradient-22" cx="147.17" cy="103.46" r="3.33" xlink:href="#radial-gradient"/><radialGradient id="radial-gradient-23" cx="179.84" cy="103.54" r="3.52" xlink:href="#radial-gradient"/><linearGradient id="linear-gradient-7" x1="192.05" y1="25.02" x2="203.44" y2="33.11" gradientTransform="translate(43.75 331.39) rotate(-90)" gradientUnits="userSpaceOnUse"><stop offset="0" stop-color="#363b39"/><stop offset="1"/></linearGradient><linearGradient id="linear-gradient-8" x1="165.76" y1="-16.93" x2="177.1" y2="15.72" gradientTransform="translate(43.75 331.39) rotate(-90)" gradientUnits="userSpaceOnUse"><stop offset="0" stop-color="#f7f7f7"/><stop offset="1" stop-color="#dbdbdb"/></linearGradient><linearGradient id="linear-gradient-9" x1="-9.2" y1="-16.93" x2="2.14" y2="15.72" gradientTransform="matrix(0, 1, 1, 0, 43.75, 121.68)" xlink:href="#linear-gradient-8"/><linearGradient id="linear-gradient-10" x1="212.93" y1="25.07" x2="217.45" y2="33.83" xlink:href="#linear-gradient-4"/><linearGradient id="linear-gradient-11" x1="214.68" y1="27.69" x2="220.33" y2="27.69" gradientTransform="translate(43.75 331.39) rotate(-90)" xlink:href="#radial-gradient-2"/><linearGradient id="linear-gradient-12" x1="214.68" y1="28.45" x2="220.33" y2="28.45" xlink:href="#linear-gradient-4"/><linearGradient id="linear-gradient-13" x1="170.13" y1="25.82" x2="174.07" y2="34.48" xlink:href="#linear-gradient-4"/><linearGradient id="linear-gradient-14" x1="164.27" y1="27.61" x2="169.92" y2="27.61" gradientTransform="translate(43.75 331.39) rotate(-90)" gradientUnits="userSpaceOnUse"><stop offset="0" stop-color="#d2d6d5"/><stop offset="1" stop-color="#fff"/></linearGradient><linearGradient id="linear-gradient-15" x1="164.27" y1="28.36" x2="169.92" y2="28.36" xlink:href="#linear-gradient-4"/><linearGradient id="linear-gradient-16" x1="184.7" y1="105.38" x2="199.9" y2="105.38" xlink:href="#linear-gradient-4"/><radialGradient id="radial-gradient-24" cx="511.87" cy="165.05" r="3.23" gradientTransform="matrix(-0.69, 0.68, 0.73, 0.65, 274.78, -336.84)" gradientUnits="userSpaceOnUse"><stop offset="0" stop-color="#c4b497"/><stop offset="0.5" stop-color="#aa9364"/><stop offset="1" stop-color="#9c8757"/></radialGradient><radialGradient id="radial-gradient-25" cx="590.28" cy="150.17" r="2.08" gradientTransform="matrix(-0.51, 0.56, 0.76, 0.61, 224.21, -298.01)" xlink:href="#radial-gradient-24"/><radialGradient id="radial-gradient-26" cx="-151.6" cy="-463.07" r="3.23" gradientTransform="matrix(-0.69, -0.68, 0.73, -0.65, 274.78, -246.51)" xlink:href="#radial-gradient-24"/><radialGradient id="radial-gradient-27" cx="-296.49" cy="-443.19" r="2.08" gradientTransform="matrix(-0.51, -0.56, 0.76, -0.61, 224.21, -285.35)" xlink:href="#radial-gradient-24"/><linearGradient id="linear-gradient-17" x1="192.31" y1="40.46" x2="192.31" y2="68.8" xlink:href="#linear-gradient-8"/></defs><g class="cls-1"><g id="Capa_2" data-name="Capa 2"><path class="cls-2" d="M51.56,114.57c-5.16.56-7.82,1.46-10,3.05a31.27,31.27,0,0,0-4.58,4.7,13.63,13.63,0,0,0-2.28,4.1c-.1.27-.2.55-.29.84h5.66V150.9H34.45c.09.28.19.56.29.83a13.51,13.51,0,0,0,2.28,4.1,30.34,30.34,0,0,0,4.58,4.7c2.14,1.6,4.8,2.49,10,3.06,13.63,1.48,35.05-1,40.32-1,28.14.33,45.28.55,51.21-1.21a5.37,5.37,0,0,0,2.83-2.32,2,2,0,0,1-.2-.92c0-2,1.42-3,1-5.33-.27-1.5,1-2,2-2.18.23-1.34.39-2.69.51-4a1.11,1.11,0,0,1-.51-.93V132.43a1.12,1.12,0,0,1,.52-.94c-.09-1-.21-2-.36-3-.92-.15-2.41-.62-2.13-2.21.41-2.28-1-3.28-1-5.33a1.83,1.83,0,0,1,.53-1.38,5.68,5.68,0,0,0-3.16-2.86c-5.93-1.76-23.07-1.54-51.21-1.21C86.61,115.6,65.19,113.08,51.56,114.57Z" transform="translate(-32.78 -111.06)"/><path class="cls-3" d="M101.13,121.84s0,0,0,0S101.13,121.82,101.13,121.84Z" transform="translate(-32.78 -111.06)"/><path class="cls-4" d="M101.18,121.19v0Z" transform="translate(-32.78 -111.06)"/><path class="cls-5" d="M100.16,153.53l-.11-.08Z" transform="translate(-32.78 -111.06)"/><path class="cls-6" d="M100.42,123.62l.06-.08Z" transform="translate(-32.78 -111.06)"/><path class="cls-7" d="M99.21,153l-.14-.05Z" transform="translate(-32.78 -111.06)"/><path class="cls-8" d="M98.71,152.89l-.15,0Z" transform="translate(-32.78 -111.06)"/><path class="cls-9" d="M83.61,116.55C75,116,61.78,115,52.4,116c-8.55.91-10,2.75-14,7.29-5.45,6.15-5.45,25.34,0,31.5,4,4.53,5.44,6.38,14,7.29,13.12,1.4,33.74-1,38.82-.91,27.08.31,43.58.51,49.29-1.14,6.58-1.91,6.22-21,6.22-21s.36-19.09-6.22-21c-5.67-1.65-22-1.46-48.73-1.15l.31.06c.83.19,6.83.42,8,1.58a4.51,4.51,0,0,1,.64.85h0c7.35.32,8.73.73,9.29.89,2.87.86,5,4,6,16.44v4.63c-1,12.46-3.09,15.58-6,16.44-.85.25-2.39.55-7.49.81l-1.12.05A3.35,3.35,0,0,1,98,160.61c-2.39-.13-4.72.59-7.18.44-3-.19-5.91-.46-8.84-.93s-3.42-3.47-2.17-5.54a4,4,0,0,1-.82-2.21c-.33-4.74-1.29-9.22-1.29-14,0-4,.79-8.88-.09-12.81a3.89,3.89,0,0,1,2.82-4.68A3.78,3.78,0,0,1,83.61,116.55Z" transform="translate(-32.78 -111.06)"/><path class="cls-10" d="M100.42,153.74l.1.09Z" transform="translate(-32.78 -111.06)"/><path class="cls-11" d="M99.66,153.21h0Z" transform="translate(-32.78 -111.06)"/><path class="cls-12" d="M100.75,123l0-.08A.2.2,0,0,0,100.75,123Z" transform="translate(-32.78 -111.06)"/><path class="cls-13" d="M101.78,156.83v0Z" transform="translate(-32.78 -111.06)"/><path class="cls-14" d="M101.76,157.34v0Z" transform="translate(-32.78 -111.06)"/><path class="cls-15" d="M101.75,156.4a.28.28,0,0,0,0-.09A.28.28,0,0,1,101.75,156.4Z" transform="translate(-32.78 -111.06)"/><path class="cls-16" d="M100.83,154.15l0,0Z" transform="translate(-32.78 -111.06)"/><path class="cls-17" d="M101.68,157.83l0-.07Z" transform="translate(-32.78 -111.06)"/><path class="cls-18" d="M101.57,158.26h0Z" transform="translate(-32.78 -111.06)"/><path class="cls-19" d="M101.68,155.93a.64.64,0,0,0,0-.07A.64.64,0,0,1,101.68,155.93Z" transform="translate(-32.78 -111.06)"/><path class="cls-20" d="M101.09,154.51l.06.09Z" transform="translate(-32.78 -111.06)"/><path class="cls-21" d="M101.37,155a.37.37,0,0,1-.05-.11A.37.37,0,0,0,101.37,155Z" transform="translate(-32.78 -111.06)"/><path class="cls-22" d="M101.54,155.42s0,0,0,0S101.53,155.41,101.54,155.42Z" transform="translate(-32.78 -111.06)"/><path class="cls-23" d="M40.11,127.26H34.45a42.79,42.79,0,0,0,0,23.64h5.66Z" transform="translate(-32.78 -111.06)"/><path class="cls-24" d="M80.69,148.48a30.23,30.23,0,0,0,2.24,7.9l1.87-.31a26.69,26.69,0,0,1-2.45-8,82,82,0,0,1,0-18,26.69,26.69,0,0,1,2.45-8l-1.87-.31a30.48,30.48,0,0,0-2.24,7.91A89.5,89.5,0,0,0,80.69,148.48Z" transform="translate(-32.78 -111.06)"/><path class="cls-25" d="M66.61,157.61a41.54,41.54,0,0,1-2.87-8.46,48.86,48.86,0,0,1,0-20.15,41.77,41.77,0,0,1,2.87-8.46,4,4,0,0,1,.83-1.33h-.06a4.84,4.84,0,0,0-1.72-.1,3,3,0,0,0-1,1.44A41.61,41.61,0,0,0,61.8,129a49.2,49.2,0,0,0,0,20.15,41.38,41.38,0,0,0,2.88,8.46,3,3,0,0,0,1,1.44,4.61,4.61,0,0,0,1.72-.1h.06A4,4,0,0,1,66.61,157.61Z" transform="translate(-32.78 -111.06)"/><path class="cls-26" d="M80.69,148.48a89.5,89.5,0,0,1,0-18.8,30.48,30.48,0,0,1,2.24-7.91l-15.49-2.56a4,4,0,0,0-.83,1.33A41.77,41.77,0,0,0,63.74,129a48.86,48.86,0,0,0,0,20.15,41.54,41.54,0,0,0,2.87,8.46,4,4,0,0,0,.83,1.33l15.49-2.56A30.23,30.23,0,0,1,80.69,148.48Z" transform="translate(-32.78 -111.06)"/><path class="cls-27" d="M100.69,159.93l1.21-3.37-16,.58-19,3.21s4.87.28,11.85,0c4.41-.18,10.48-.67,14.4-.67C96.87,159.69,99.39,159.82,100.69,159.93Z" transform="translate(-32.78 -111.06)"/><path class="cls-28" d="M100.69,118.23l1.21,3.37-16-.58-19-3.22s4.87-.28,11.85,0c4.41.18,10.48.68,14.4.67C96.87,118.46,99.43,118.36,100.69,118.23Z" transform="translate(-32.78 -111.06)"/><path class="cls-29" d="M146.73,152.84c.41,2.28-1,3.28-1,5.33a2,2,0,0,0,.2.92c1.39-2.09,2.25-5.24,2.78-8.43C147.77,150.84,146.46,151.34,146.73,152.84Z" transform="translate(-32.78 -111.06)"/><path class="cls-30" d="M146.73,126.32c-.28,1.59,1.21,2.06,2.13,2.21a26.27,26.27,0,0,0-2.61-8.92,1.83,1.83,0,0,0-.53,1.38C145.72,123,147.14,124,146.73,126.32Z" transform="translate(-32.78 -111.06)"/><path class="cls-31" d="M66.61,120.54A41.77,41.77,0,0,0,63.74,129a39.25,39.25,0,0,0-.77,4.73C67.82,138,76.63,143,80.36,145.08a92.6,92.6,0,0,1,.33-15.4,30.48,30.48,0,0,1,2.24-7.91l-15.49-2.56A4,4,0,0,0,66.61,120.54Z" transform="translate(-32.78 -111.06)"/><path class="cls-32" d="M37.69,152.81A17,17,0,0,0,50.51,161a132.18,132.18,0,0,0,13.59.69S42.49,159.17,37.69,152.81Z" transform="translate(-32.78 -111.06)"/><path class="cls-33" d="M37.69,125.3a17,17,0,0,1,12.82-8.22,132.18,132.18,0,0,1,13.59-.69S42.49,118.94,37.69,125.3Z" transform="translate(-32.78 -111.06)"/><path class="cls-34" d="M68.08,117.94s.41-1.92,2.16-2,5.3,1.93,3.05,2A37.4,37.4,0,0,1,68.08,117.94Z" transform="translate(-32.78 -111.06)"/><path class="cls-35" d="M71.92,111.24c-.61.43-1.88,4.31-1.88,4.31-.27.76.45,1,1.06,1.11l1.8-5.56A1.18,1.18,0,0,0,71.92,111.24Z" transform="translate(-32.78 -111.06)"/><path class="cls-36" d="M71.1,116.66a4.09,4.09,0,0,0,.75,0l1.44-5.46a2.21,2.21,0,0,0-.39-.14Z" transform="translate(-32.78 -111.06)"/><path class="cls-37" d="M68,160.23s.41,2.05,2.16,2.1,5.3-2.05,3-2.1A39.07,39.07,0,0,0,68,160.23Z" transform="translate(-32.78 -111.06)"/><path class="cls-38" d="M69.92,162.63s1.27,3.87,1.88,4.3a1.24,1.24,0,0,0,1.06.12l-1.81-5.55C70.42,161.58,69.64,161.83,69.92,162.63Z" transform="translate(-32.78 -111.06)"/><path class="cls-39" d="M72.86,167.05a1.66,1.66,0,0,0,.31-.12l-1.44-5.46a3.83,3.83,0,0,0-.68,0Z" transform="translate(-32.78 -111.06)"/><path class="cls-40" d="M91.07,162.56a.53.53,0,0,0,.54.51h4.51a.53.53,0,0,0,.54-.51Z" transform="translate(-32.78 -111.06)"/><path class="cls-40" d="M113.61,162.82a.53.53,0,0,0,.54.51h4.5a.53.53,0,0,0,.55-.51Z" transform="translate(-32.78 -111.06)"/><path class="cls-40" d="M91.07,115.59a.53.53,0,0,1,.54-.51h4.51a.53.53,0,0,1,.54.51Z" transform="translate(-32.78 -111.06)"/><path class="cls-40" d="M113.61,115.34a.53.53,0,0,1,.54-.52h4.5a.54.54,0,0,1,.55.52Z" transform="translate(-32.78 -111.06)"/><path class="cls-41" d="M59.13,150.23c-.07-.82-.57-1.23-.64-2.06a.13.13,0,0,0-.26,0c.08.83.57,1.24.64,2.06a.13.13,0,0,0,.26,0Z" transform="translate(-32.78 -111.06)"/><path class="cls-41" d="M58.75,148.17c.07.83.56,1.24.63,2.06a.13.13,0,0,0,.13.12.12.12,0,0,0,.13-.12c-.07-.82-.56-1.23-.63-2.06a.14.14,0,0,0-.14-.12A.12.12,0,0,0,58.75,148.17Z" transform="translate(-32.78 -111.06)"/><path class="cls-41" d="M59.26,148.17c.07.83.57,1.24.64,2.06a.12.12,0,0,0,.13.12.11.11,0,0,0,.12-.12c-.07-.82-.56-1.23-.63-2.06a.13.13,0,0,0-.13-.12A.12.12,0,0,0,59.26,148.17Z" transform="translate(-32.78 -111.06)"/><path class="cls-41" d="M59.13,127.94c-.07.83-.57,1.24-.64,2.06a.13.13,0,0,1-.26,0c.08-.82.57-1.23.64-2.06a.13.13,0,0,1,.26,0Z" transform="translate(-32.78 -111.06)"/><path class="cls-41" d="M58.75,130c.07-.82.56-1.23.63-2.06a.13.13,0,0,1,.13-.12.12.12,0,0,1,.13.12c-.07.83-.56,1.24-.63,2.06a.14.14,0,0,1-.14.12A.11.11,0,0,1,58.75,130Z" transform="translate(-32.78 -111.06)"/><path class="cls-41" d="M59.26,130c.07-.82.57-1.23.64-2.06a.12.12,0,0,1,.13-.12.11.11,0,0,1,.12.12c-.07.83-.56,1.24-.63,2.06a.13.13,0,0,1-.13.12A.12.12,0,0,1,59.26,130Z" transform="translate(-32.78 -111.06)"/><path class="cls-42" d="M148.7,132.43v13.32a1.11,1.11,0,0,0,.51.93,75.14,75.14,0,0,0,.34-7.6s.06-3.42-.33-7.59A1.12,1.12,0,0,0,148.7,132.43Z" transform="translate(-32.78 -111.06)"/><path class="cls-43" d="M39.8,123.61c-.67-.6.09-2.39,1.71-4s3.47-2.42,4.14-1.82-.09,2.39-1.71,4S40.47,124.21,39.8,123.61Z" transform="translate(-32.78 -111.06)"/><path class="cls-44" d="M36.67,127.12c-.45-.36-.2-1.35.57-2.2s1.77-1.24,2.22-.88.2,1.36-.57,2.2S37.13,127.49,36.67,127.12Z" transform="translate(-32.78 -111.06)"/><path class="cls-45" d="M39.8,154.65c-.67.6.09,2.39,1.71,4s3.47,2.43,4.14,1.83-.09-2.39-1.71-4S40.47,154.05,39.8,154.65Z" transform="translate(-32.78 -111.06)"/><path class="cls-46" d="M36.67,151.14c-.45.36-.2,1.35.57,2.2s1.77,1.24,2.22.87.2-1.35-.57-2.2S37.13,150.77,36.67,151.14Z" transform="translate(-32.78 -111.06)"/><path class="cls-47" d="M84.43,139.08c-.26,10.82,1.48,15.42,2,16.47h1.06c3.13,0,9.74-.15,14.89-.41a41.46,41.46,0,0,0,6.66-.66c2.14-.64,3.08-8.42,3.47-13.35v-2h0v-2h0c-.39-4.94-1.33-12.71-3.47-13.35-2.45-.74-15.27-1-20.8-1.07l-1.81,0C85.91,123.66,84.17,128.26,84.43,139.08Z" transform="translate(-32.78 -111.06)"/></g></g></svg>