<?xml version="1.0" encoding="utf-8"?>
<!-- Generator: Adobe Illustrator 24.2.0, SVG Export Plug-In . SVG Version: 6.00 Build 0)  -->
<svg version="1.1" xmlns="http://www.w3.org/2000/svg" xmlns:xlink="http://www.w3.org/1999/xlink" x="0px" y="0px"
	 viewBox="0 0 179.7 227.8" style="enable-background:new 0 0 179.7 227.8;" xml:space="preserve">
<style type="text/css">
	.st0{fill:#6A6B6A;}
	.st1{fill:#898988;}
	.st2{fill:#A7170D;}
	.st3{fill:#C1C1C1;}
	.st4{fill:#A2A3A3;}
	.st5{fill:#D7D7D7;}
	.st6{fill:#7C140A;}
	.st7{fill:#E95433;}
	.st8{fill:#A8A7A1;}
	.st9{fill:#74160A;}
	.st10{fill:#FFFCE6;}
	.st11{fill:#878888;}
	.st12{fill:#626362;}
	.st13{fill:#797A79;}
	.st14{fill:#313030;}
	.st15{fill:#0C2518;}
	.st16{fill:#AEAEAE;}
	.st17{fill:#FFFFFF;}
	.st18{fill:#C4C4C3;}
	.st19{fill:#543A22;}
	.st20{fill:#7A5435;}
</style>
<g id="Layer_2">
</g>
<g id="Capa_2">
	<g>
		<path class="st0" d="M97.4,123.6c0,1-0.6,1.8-1.3,1.8l0,0c-0.7,0-1.3-0.8-1.3-1.8v-4.2c0-1,0.6-1.8,1.3-1.8l0,0
			c0.7,0,1.3,0.8,1.3,1.8V123.6z"/>
		<path class="st0" d="M97.4,139.1c0,1-0.6,1.8-1.3,1.8l0,0c-0.7,0-1.3-0.8-1.3-1.8v-4.2c0-1,0.6-1.8,1.3-1.8l0,0
			c0.7,0,1.3,0.8,1.3,1.8V139.1z"/>
		<path class="st1" d="M127,135.6c0,0.7-0.8,1.4-1.7,1.4H92.1c-1,0-1.7-0.6-1.7-1.4l0,0c0-0.7,0.8-1.4,1.7-1.4h33.2
			C126.2,134.3,127,134.9,127,135.6L127,135.6z"/>
		<g>
			<path class="st2" d="M116.8,133.8c0,1.3-1,2.3-2.3,2.3H88.9c-1.3,0-2.3-1-2.3-2.3v-10.3c0-1.3,1-2.3,2.3-2.3h25.6
				c1.3,0,2.3,1,2.3,2.3V133.8z"/>
			<g>
				<path class="st3" d="M68.7,128.6h35.8l-0.7,5l-18.7,5c0,0-1.8,0.5-3.7,0c-1.9-0.5-11.9-6.8-11.9-6.8L68.7,128.6z"/>
				<path class="st4" d="M84.6,128.6v10.2c0.4-0.1,0.6-0.1,0.6-0.1l18.7-5l0.7-5H84.6z"/>
				<path class="st3" d="M84.3,128.6H68.7l0.9,3.2c0,0,10,6.4,11.9,6.8c1.1,0.3,2.1,0.2,2.8,0.2V128.6z"/>
				<path class="st1" d="M83.8,138.2c-1.7-0.7-3.3-1.6-4.9-2.5c-3.5-2-7.1-3.9-10.2-6.9l0.8,3c0,0,10,6.4,11.9,6.8
					c1.9,0.5,3.7,0,3.7,0l0.1,0C84.8,138.5,84.3,138.4,83.8,138.2z"/>
				<path class="st3" d="M68.7,128.8h35.8l-0.7-5l-18.7-5c0,0-1.8-0.5-3.7,0c-1.9,0.5-11.9,6.8-11.9,6.8L68.7,128.8z"/>
				<path class="st4" d="M84.6,128.8h19.9l-0.7-5l-18.7-5c0,0-0.2-0.1-0.6-0.1V128.8z"/>
				<path class="st3" d="M84.3,118.5c-0.7-0.1-1.8-0.1-2.8,0.2c-1.9,0.5-11.9,6.8-11.9,6.8l-0.9,3.2h15.6V118.5z"/>
				<path class="st1" d="M83.8,119.2c-1.7,0.7-3.3,1.6-4.9,2.5c-3.5,2-7.1,3.9-10.2,6.9l0.8-3c0,0,10-6.4,11.9-6.8
					c1.9-0.5,3.7,0,3.7,0l0.1,0C84.8,118.8,84.3,119,83.8,119.2z"/>
				<path class="st5" d="M103.9,128.5c0,1.3,1,5.1-0.1,5.1l-32.3-2.8c-1.1,0-1.9-1-1.9-2.3v-0.7c0-1.3,0.9-2.3,1.9-2.3l27.9-2.8
					c1.1,0,4.6,3.8,4.6,5V128.5z"/>
				<path class="st4" d="M103.9,128.5v-0.7c0-1.3-3.5-5-4.6-5l-13,1.3v8.1l17.5,1.5C104.9,133.6,103.9,129.8,103.9,128.5z"/>
			</g>
			<g>
				<path class="st2" d="M68.2,120.8c0,0-3.9,1.4-4.7,5c-0.8,3.6,0.2,9.4,5,11.2L68.2,120.8z"/>
				<g>
					<path class="st6" d="M65,122c0,0.5,0.4,0.8,0.8,0.8h2.3c0.5,0,0.8-0.4,0.8-0.8l0,0c0-0.5-0.4-0.8-0.8-0.8h-2.3
						C65.3,121.2,65,121.5,65,122L65,122z"/>
					<g>
						<path class="st7" d="M65,120c0,0-2.9,0.6-2.4,2.5c0.3,1,3.4,1.9,4.4,1.4c0.4-0.2,0.5-2.7,0.1-3.6
							C66.9,119.8,65.8,119.8,65,120z"/>
						<path class="st8" d="M67.1,120.3c-0.1-0.3-0.8-0.4-1.4-0.4v4.2c0.5,0.1,1,0,1.3-0.2C67.5,123.7,67.5,121.2,67.1,120.3z"/>
						<path class="st7" d="M62.6,121.6C63,120.4,65,120,65,120c0.8-0.2,1.9-0.2,2.2,0.3c0.1,0.3,0.2,0.8,0.3,1.3H62.6z"/>
					</g>
				</g>
				<g>
					<path class="st6" d="M65,135.4c0,0.5,0.4,0.8,0.8,0.8h2.3c0.5,0,0.8-0.4,0.8-0.8l0,0c0-0.5-0.4-0.8-0.8-0.8h-2.3
						C65.3,134.5,65,134.9,65,135.4L65,135.4z"/>
					<g>
						<path class="st7" d="M65,133.4c0,0-2.9,0.6-2.4,2.5c0.3,1,3.4,1.9,4.4,1.4c0.4-0.2,0.5-2.7,0.1-3.6
							C66.9,133.2,65.8,133.2,65,133.4z"/>
						<path class="st8" d="M67.1,133.7c-0.1-0.3-0.8-0.4-1.4-0.4v4.2c0.5,0.1,1,0,1.3-0.2C67.5,137,67.5,134.5,67.1,133.7z"/>
						<path class="st7" d="M62.6,135c0.4-1.2,2.4-1.6,2.4-1.6c0.8-0.2,1.9-0.2,2.2,0.3c0.1,0.3,0.2,0.8,0.3,1.3H62.6z"/>
					</g>
				</g>
				<path class="st2" d="M72.6,129.3c0,1.3-1.2,2.3-2.6,2.3H48.2c-1.4,0-5-1-5-2.3v-1.2c0-1.3,3.8-2.3,5.2-2.3H70
					c1.4,0,2.6,1,2.6,2.3V129.3z"/>
				<path class="st9" d="M70,125.8H57.8v5.8H70c1.4,0,2.6-1,2.6-2.3v-1.2C72.6,126.8,71.4,125.8,70,125.8z"/>
				<path class="st9" d="M67.7,129c0,1-0.8,2.6-2,2.9l-4.9,0.6c-1.1,0-2-0.8-2-1.9v-3.9c0-1,0.9-1.9,2-1.9l4.9,0.6
					c1.1,0,2,1.8,2,2.8V129z"/>
				<path class="st10" d="M61.5,125l-0.6-0.1c-1.1,0-2,0.8-2,1.9v3.9c0,1,0.9,1.9,2,1.9l0.6-0.1V125z"/>
				<path class="st11" d="M61.5,125l-0.6-0.1c-0.1,0-0.1,0-0.2,0v7.6c0.1,0,0.1,0,0.2,0l0.6-0.1V125z"/>
				<g>
					<g>
						<path class="st2" d="M73.5,128.4l-7.3-0.3c0,0-0.1,2.5,0.8,5.5c0.7,2.3,2.3,4.9,3.7,7.7l1.1-1c0,0-1.3-4.6-0.4-5.6
							C72.3,133.8,73.8,130.3,73.5,128.4z"/>
						<g>
							<path class="st11" d="M67,145.7c-0.2-1.9-0.9-3.3-1.4-3.3c-0.6,0.1-0.8,1.6-0.6,3.5c0.2,1.9,0.9,3.3,1.4,3.3
								C67,149.1,67.2,147.6,67,145.7z"/>
							<g>
								<path class="st12" d="M67,145.7c0.2,1.9,0,3.4-0.6,3.5c0,0-0.1,0-0.1,0c0.4-0.4,0.6-1.8,0.4-3.4c-0.2-1.7-0.8-3.1-1.3-3.2
									c0.1-0.1,0.1-0.1,0.2-0.1C66.1,142.4,66.7,143.9,67,145.7z"/>
							</g>
						</g>
						<path class="st13" d="M65,145.9c-0.1,0-0.2,0-0.3-0.1c-0.2-0.2-0.1-0.5-0.1-0.6c0,0,0,0,0,0c0,0,0-0.3,0.1-1.2
							c0.2-1.7,0.6-4.9,0.6-5.3c0-0.6,0.4-0.7,0.4-0.7l5.5-1.4l0,0.2l-5.5,1.4c0,0-0.3,0.1-0.3,0.5c0,0.4-0.4,3.5-0.6,5.3
							c-0.1,0.7-0.1,1.2-0.1,1.2c0,0,0,0,0,0.1c0,0.1,0,0.4,0.1,0.5c0,0,0.1,0.1,0.2,0.1L65,145.9z"/>
						<g>
							<path class="st14" d="M73.6,146.3c0.1,0.2,0,0.4-0.2,0.5l-0.9,0.3c-0.2,0.1-0.4-0.1-0.5-0.3l-1.7-6c-0.1-0.2,0-0.4,0.2-0.5
								l0.9-0.3c0.2-0.1,0.4,0.1,0.5,0.3L73.6,146.3z"/>
							<path class="st15" d="M72.2,139.9c0,0.1,0,0.2-0.1,0.2l-2.1,0.6c-0.1,0-0.2-0.1-0.2-0.2l0,0c0-0.1,0-0.2,0.1-0.2l2.1-0.6
								C72,139.7,72.1,139.8,72.2,139.9L72.2,139.9z"/>
						</g>
					</g>
					<g>
						<path class="st2" d="M73.5,128.7l-7.3-0.5c0,0-0.1-1.8,0.7-4.3c0.7-2.2,2.3-4.8,3.9-7.8l1.1,1c0,0-1.3,4.6-0.4,5.6
							C72.3,123.6,73.8,126.8,73.5,128.7z"/>
						<g>
							<path class="st11" d="M67,111.6c-0.2,1.9-0.9,3.3-1.4,3.3c-0.6-0.1-0.8-1.6-0.6-3.5c0.2-1.9,0.9-3.3,1.4-3.3
								C67,108.2,67.2,109.8,67,111.6z"/>
							<g>
								<path class="st12" d="M67,111.6c0.2-1.9,0-3.4-0.6-3.5c0,0-0.1,0-0.1,0c0.4,0.4,0.6,1.8,0.4,3.4c-0.2,1.7-0.8,3.1-1.3,3.2
									c0.1,0,0.1,0.1,0.2,0.1C66.1,114.9,66.7,113.5,67,111.6z"/>
							</g>
						</g>
						<path class="st13" d="M71.2,121.2l-5.5-1.8l0,0c0,0-0.4-0.1-0.4-0.7c0-0.4-0.4-3.6-0.6-5.3c-0.1-1-0.1-1.2-0.1-1.2
							c0,0,0,0,0,0c0-0.1-0.1-0.4,0.1-0.6c0.1-0.1,0.2-0.1,0.3-0.1l0,0.2c-0.1,0-0.1,0-0.2,0.1c-0.1,0.1-0.1,0.4-0.1,0.5
							c0,0,0,0.1,0,0.1c0,0,0.1,0.6,0.1,1.2c0.2,1.9,0.6,5,0.6,5.3c0,0.4,0.3,0.5,0.3,0.5l5.5,1.8L71.2,121.2z"/>
						<g>
							<path class="st14" d="M73.6,111.1c0.1-0.2,0-0.4-0.2-0.5l-0.9-0.3c-0.2-0.1-0.4,0.1-0.5,0.3l-1.7,6c-0.1,0.2,0,0.4,0.2,0.5
								l0.9,0.3c0.2,0.1,0.4-0.1,0.5-0.3L73.6,111.1z"/>
							<path class="st15" d="M72.2,117.5c0-0.1,0-0.2-0.1-0.2l-2.1-0.6c-0.1,0-0.2,0-0.2,0.2l0,0c0,0.1,0,0.2,0.1,0.2l2.1,0.6
								C72,117.7,72.1,117.6,72.2,117.5L72.2,117.5z"/>
						</g>
					</g>
				</g>
				<path class="st16" d="M73.3,128.1c0,1.9-1,3.5-2.3,3.5c-1.3,0-2.3-1.6-2.3-3.5c0-1.9,1-3.5,2.3-3.5
					C72.3,124.7,73.3,126.2,73.3,128.1z"/>
				<path class="st16" d="M73.3,128.1c0,1.9-1,3.5-2.3,3.5c-1.3,0-2.3-1.6-2.3-3.5c0-1.9,1-3.5,2.3-3.5
					C72.3,124.7,73.3,126.2,73.3,128.1z"/>
				<path class="st17" d="M73.3,128.1c0,1.4-0.8,2.6-1.7,2.6c-1,0-1.7-1.2-1.7-2.6c0-1.4,0.8-2.6,1.7-2.6
					C72.5,125.5,73.3,126.7,73.3,128.1z"/>
			</g>
			<g>
				<path class="st2" d="M117.6,134.9c0,0.3-0.5,0.6-1,0.6l0,0c-0.6,0-1-0.2-1-0.6V123c0-0.3,0.5-0.6,1-0.6l0,0c0.6,0,1,0.2,1,0.6
					V134.9z"/>
				<g>
					<path class="st6" d="M121.9,126.7c0,0.2-0.2,0.3-0.6,0.3l0,0c-0.3,0-0.6-0.1-0.6-0.3v-4.4c0-0.2,0.2-0.3,0.6-0.3l0,0
						c0.3,0,0.6,0.1,0.6,0.3V126.7z"/>
					<g>
						<path class="st6" d="M124.6,122.4c0,0.5-0.4,0.8-0.8,0.8h-2.3c-0.5,0-0.8-0.4-0.8-0.8l0,0c0-0.5,0.4-0.8,0.8-0.8h2.3
							C124.3,121.6,124.6,122,124.6,122.4L124.6,122.4z"/>
						<g>
							<path class="st7" d="M124.6,120.5c0,0,2.9,0.6,2.4,2.5c-0.3,1-3.4,1.9-4.4,1.4c-0.4-0.2-0.5-2.7-0.1-3.6
								C122.7,120.3,123.8,120.3,124.6,120.5z"/>
							<path class="st8" d="M122.5,120.8c0.1-0.3,0.8-0.4,1.4-0.4v4.2c-0.5,0.1-1,0-1.3-0.2C122.1,124.1,122.1,121.6,122.5,120.8z"
								/>
							<path class="st7" d="M127,122.1c-0.4-1.2-2.4-1.6-2.4-1.6c-0.8-0.2-1.9-0.2-2.2,0.3c-0.1,0.3-0.2,0.8-0.3,1.3H127z"/>
						</g>
					</g>
				</g>
				<g>
					<path class="st6" d="M121.9,130.7c0-0.2-0.2-0.3-0.6-0.3l0,0c-0.3,0-0.6,0.1-0.6,0.3v4.4c0,0.2,0.2,0.3,0.6,0.3l0,0
						c0.3,0,0.6-0.1,0.6-0.3V130.7z"/>
					<g>
						<path class="st6" d="M124.6,134.9c0-0.5-0.4-0.8-0.8-0.8h-2.3c-0.5,0-0.8,0.4-0.8,0.8l0,0c0,0.5,0.4,0.8,0.8,0.8h2.3
							C124.3,135.7,124.6,135.4,124.6,134.9L124.6,134.9z"/>
						<g>
							<path class="st7" d="M124.6,136.9c0,0,2.9-0.6,2.4-2.5c-0.3-1-3.4-1.9-4.4-1.4c-0.4,0.2-0.5,2.7-0.1,3.6
								C122.7,137.1,123.8,137.1,124.6,136.9z"/>
							<path class="st8" d="M122.5,136.6c0.1,0.3,0.8,0.4,1.4,0.4v-4.2c-0.5-0.1-1,0-1.3,0.2C122.1,133.2,122.1,135.7,122.5,136.6z"
								/>
							<path class="st7" d="M127,135.2c-0.4,1.2-2.4,1.6-2.4,1.6c-0.8,0.2-1.9,0.2-2.2-0.3c-0.1-0.3-0.2-0.8-0.3-1.3H127z"/>
						</g>
					</g>
				</g>
				<path class="st2" d="M118.7,122.8c0,1-0.8,1.9-1.9,1.9c-1,0-1.9-0.8-1.9-1.9c0-1,0.8-1.9,1.9-1.9
					C117.9,121,118.7,121.8,118.7,122.8z"/>
				<path class="st2" d="M118.7,134.2c0,1-0.8,1.9-1.9,1.9c-1,0-1.9-0.8-1.9-1.9c0-1,0.8-1.9,1.9-1.9
					C117.9,132.3,118.7,133.2,118.7,134.2z"/>
				<path class="st2" d="M138.6,129.1c0,1.3-1.2,2.3-2.6,2.3h-21.7c-1.4,0-5-1-5-2.3v-1.2c0-1.3,3.8-2.3,5.2-2.3H136
					c1.4,0,2.6,1,2.6,2.3V129.1z"/>
				<g>
					<rect x="127.8" y="125.4" class="st7" width="6" height="6.1"/>
					<rect x="127.8" y="125.4" class="st8" width="2.4" height="6.1"/>
					<rect x="127.8" y="125.4" class="st7" width="6" height="1.6"/>
				</g>
				<g>
					<path class="st18" d="M129.8,123.2h-14.9c-1.2,0-2.2,1-2.2,2.3v6.1c0,1.3,1,2.3,2.2,2.3h14.9c1.2,0,2.2-1,2.2-2.3v-6.1
						C132,124.2,131,123.2,129.8,123.2z M131.4,131.1c0,1.1-0.9,2-2,2h-13.7c-1.1,0-2-0.9-2-2v-5.2c0-1.1,0.9-2,2-2h13.7
						c1.1,0,2,0.9,2,2V131.1z"/>
					<path class="st18" d="M118.7,133.3c0,0.3-0.2,0.5-0.5,0.5l0,0c-0.3,0-0.5-0.2-0.5-0.5v-9.5c0-0.3,0.2-0.5,0.5-0.5l0,0
						c0.3,0,0.5,0.2,0.5,0.5V133.3z"/>
					<path class="st18" d="M123.3,133.3c0,0.3-0.2,0.5-0.5,0.5l0,0c-0.3,0-0.5-0.2-0.5-0.5v-9.5c0-0.3,0.2-0.5,0.5-0.5l0,0
						c0.3,0,0.5,0.2,0.5,0.5V133.3z"/>
					<path class="st18" d="M128,133.3c0,0.3-0.2,0.5-0.5,0.5l0,0c-0.3,0-0.5-0.2-0.5-0.5v-9.5c0-0.3,0.2-0.5,0.5-0.5l0,0
						c0.3,0,0.5,0.2,0.5,0.5V133.3z"/>
				</g>
			</g>
			<g>
				<path class="st19" d="M112.7,125.3c0-1-0.2-2.4-1.2-3.1c-1.9-1.4-5.8-0.1-7.9,0.4c-2.5,0.6-4.4,1.1-6.9,1.9
					c-1.3,0.4-2.9,0.7-4.2,1.2c-0.9,0.3-2.4,1.9-2.2,3.1c0.2,1.1,1.2,2.4,2.1,2.7c1.3,0.5,3.8,1.2,5.1,1.6c2.5,0.8,3.5,0.9,6,1.5
					c2.1,0.5,5.9,1.8,7.9,0.4c1-0.7,1.2-2.1,1.2-3.1c0,0,0-2.6,0-3.3C112.7,127.9,112.7,125.3,112.7,125.3z"/>
				<g>
					<path class="st20" d="M97.5,130.4c0-0.3,0-0.7,0-1c0-0.9,0-1.8,0-2.6c0-0.1,0-0.3,0-0.4c0-0.1,0-0.1,0-0.2
						c-0.1-0.5-1.1-0.1-1.4,0c-0.4,0.1-0.8,0.2-1.2,0.3c-0.2,0-0.4,0.1-0.6,0.1c0,0,0,0.1-0.1,0.1c0,0,0,0,0,0c0,0,0,0.1,0,0.1
						c0,0,0,0.1-0.1,0.1v3.6c0,0,0,0,0,0.1c0.1,0.1,0.2,0.2,0.3,0.3c0.2,0,0.4,0.1,0.6,0.1c0.4,0.1,0.8,0.2,1.2,0.2
						c0.2,0,0.4,0.1,0.6,0.1c0.1,0,0.3,0.1,0.5,0c0,0,0,0,0,0C97.6,131,97.5,130.6,97.5,130.4z"/>
					<path class="st20" d="M93.4,130.5c0.1,0,0.3,0,0.4-0.1c0,0,0,0,0,0V127c0-0.1,0-0.2-0.1-0.2c-0.1,0-0.1-0.1-0.2-0.1
						c-0.4,0.1-0.8,0.2-1.2,0.3c-0.4,0.1-1.1,0.1-1.1,0.6c0,0.6,0,1.2,0,1.8c0,0.2,0,0.4,0.1,0.5c0.2,0.2,0.5,0.2,0.8,0.3
						C92.6,130.3,93,130.4,93.4,130.5C93.4,130.5,93.4,130.5,93.4,130.5z"/>
					<path class="st20" d="M104.2,124.6c-0.1-0.1-0.2-0.1-0.3-0.1c-1.9,0.4-3.7,0.8-5.6,1.2c-0.2,0.1-0.3,0.3-0.4,0.5v5
						c0,0.1,0.1,0.2,0.2,0.3c0.1,0.1,0.1,0.1,0.2,0.1c0.7,0.2,1.5,0.4,2.2,0.6c1.1,0.3,2.2,0.6,3.2,0.8c0.2,0,0.3,0,0.4-0.1
						c0.1-0.1,0.1-0.2,0.1-0.3L104.2,124.6C104.2,124.6,104.2,124.6,104.2,124.6z"/>
					<path class="st20" d="M110.6,133.8v-10.5c-0.1-0.1-0.3-0.2-0.4-0.2c-1.7,0.4-3.4,0.7-5.1,1.1c-0.2,0.1-0.4,0.1-0.5,0.3
						c-0.1,0.1-0.1,0.2-0.1,0.3v8.1c0.1,0.1,0.2,0.3,0.3,0.3c0,0,0.1,0,0.1,0.1c1.6,0.4,3.3,0.8,5,1.1
						C110.4,134.3,110.6,134.1,110.6,133.8z"/>
				</g>
			</g>
		</g>
	</g>
</g>
</svg>
