<svg id="Capa_1" data-name="Capa 1" xmlns="http://www.w3.org/2000/svg" viewBox="0 0 95.4 41.1"><defs><style>.cls-1{fill:#6a6b6a;}.cls-2{fill:#898988;}.cls-3{fill:#a7170d;}.cls-4{fill:#c1c1c1;}.cls-5{fill:#a2a3a3;}.cls-6{fill:#d7d7d7;}.cls-7{fill:#7c140a;}.cls-8{fill:#e95433;}.cls-9{fill:#a8a7a1;}.cls-10{fill:#74160a;}.cls-11{fill:#fffce6;}.cls-12{fill:#878888;}.cls-13{fill:#626362;}.cls-14{fill:#797a79;}.cls-15{fill:#313030;}.cls-16{fill:#0c2518;}.cls-17{fill:#aeaeae;}.cls-18{fill:#fff;}.cls-19{fill:#c4c4c3;}.cls-20{fill:#543a22;}.cls-21{fill:#7a5435;}</style></defs><g id="Capa_2" data-name="Capa 2"><path class="cls-1" d="M97.4,123.6c0,1-.6,1.8-1.3,1.8h0c-.7,0-1.3-.8-1.3-1.8v-4.2c0-1,.6-1.8,1.3-1.8h0c.7,0,1.3.8,1.3,1.8Z" transform="translate(-43.2 -108.1)"/><path class="cls-1" d="M97.4,139.1c0,1-.6,1.8-1.3,1.8h0c-.7,0-1.3-.8-1.3-1.8v-4.2c0-1,.6-1.8,1.3-1.8h0c.7,0,1.3.8,1.3,1.8Z" transform="translate(-43.2 -108.1)"/><path class="cls-2" d="M127,135.6a1.65,1.65,0,0,1-1.7,1.4H92.1a1.52,1.52,0,0,1-1.7-1.4h0a1.65,1.65,0,0,1,1.7-1.4h33.2c.9.1,1.7.7,1.7,1.4Z" transform="translate(-43.2 -108.1)"/><path class="cls-3" d="M116.8,133.8a2.26,2.26,0,0,1-2.3,2.3H88.9a2.26,2.26,0,0,1-2.3-2.3V123.5a2.26,2.26,0,0,1,2.3-2.3h25.6a2.26,2.26,0,0,1,2.3,2.3Z" transform="translate(-43.2 -108.1)"/><path class="cls-4" d="M68.7,128.6h35.8l-.7,5-18.7,5a7.9,7.9,0,0,1-3.7,0c-1.9-.5-11.9-6.8-11.9-6.8Z" transform="translate(-43.2 -108.1)"/><path class="cls-5" d="M84.6,128.6v10.2a2.8,2.8,0,0,1,.6-.1l18.7-5,.7-5h-20Z" transform="translate(-43.2 -108.1)"/><path class="cls-4" d="M84.3,128.6H68.7l.9,3.2s10,6.4,11.9,6.8a9.63,9.63,0,0,0,2.8.2Z" transform="translate(-43.2 -108.1)"/><path class="cls-2" d="M83.8,138.2a45.15,45.15,0,0,1-4.9-2.5c-3.5-2-7.1-3.9-10.2-6.9l.8,3s10,6.4,11.9,6.8a7.9,7.9,0,0,0,3.7,0h.1A10.26,10.26,0,0,1,83.8,138.2Z" transform="translate(-43.2 -108.1)"/><path class="cls-4" d="M68.7,128.8h35.8l-.7-5-18.7-5a7.9,7.9,0,0,0-3.7,0c-1.9.5-11.9,6.8-11.9,6.8Z" transform="translate(-43.2 -108.1)"/><path class="cls-5" d="M84.6,128.8h19.9l-.7-5-18.7-5a1.45,1.45,0,0,0-.6-.1v10.1Z" transform="translate(-43.2 -108.1)"/><path class="cls-4" d="M84.3,118.5a7,7,0,0,0-2.8.2c-1.9.5-11.9,6.8-11.9,6.8l-.9,3.2H84.3Z" transform="translate(-43.2 -108.1)"/><path class="cls-2" d="M83.8,119.2a45.15,45.15,0,0,0-4.9,2.5c-3.5,2-7.1,3.9-10.2,6.9l.8-3s10-6.4,11.9-6.8a7.9,7.9,0,0,1,3.7,0h.1A4.29,4.29,0,0,0,83.8,119.2Z" transform="translate(-43.2 -108.1)"/><path class="cls-6" d="M103.9,128.5c0,1.3,1,5.1-.1,5.1l-32.3-2.8a2.08,2.08,0,0,1-1.9-2.3v-.7a2.14,2.14,0,0,1,1.9-2.3l27.9-2.8c1.1,0,4.6,3.8,4.6,5v.8Z" transform="translate(-43.2 -108.1)"/><path class="cls-5" d="M103.9,128.5v-.7c0-1.3-3.5-5-4.6-5l-13,1.3v8.1l17.5,1.5C104.9,133.6,103.9,129.8,103.9,128.5Z" transform="translate(-43.2 -108.1)"/><path class="cls-3" d="M68.2,120.8s-3.9,1.4-4.7,5,.2,9.4,5,11.2Z" transform="translate(-43.2 -108.1)"/><path class="cls-7" d="M65,122a.79.79,0,0,0,.8.8h2.3a.79.79,0,0,0,.8-.8h0a.79.79,0,0,0-.8-.8H65.8a.74.74,0,0,0-.8.8Z" transform="translate(-43.2 -108.1)"/><path class="cls-8" d="M65,120s-2.9.6-2.4,2.5c.3,1,3.4,1.9,4.4,1.4.4-.2.5-2.7.1-3.6C66.9,119.8,65.8,119.8,65,120Z" transform="translate(-43.2 -108.1)"/><path class="cls-9" d="M67.1,120.3c-.1-.3-.8-.4-1.4-.4v4.2a1.81,1.81,0,0,0,1.3-.2C67.5,123.7,67.5,121.2,67.1,120.3Z" transform="translate(-43.2 -108.1)"/><path class="cls-8" d="M62.6,121.6C63,120.4,65,120,65,120c.8-.2,1.9-.2,2.2.3a13,13,0,0,1,.3,1.3Z" transform="translate(-43.2 -108.1)"/><path class="cls-7" d="M65,135.4a.79.79,0,0,0,.8.8h2.3a.79.79,0,0,0,.8-.8h0a.79.79,0,0,0-.8-.8H65.8c-.5-.1-.8.3-.8.8Z" transform="translate(-43.2 -108.1)"/><path class="cls-8" d="M65,133.4s-2.9.6-2.4,2.5c.3,1,3.4,1.9,4.4,1.4.4-.2.5-2.7.1-3.6C66.9,133.2,65.8,133.2,65,133.4Z" transform="translate(-43.2 -108.1)"/><path class="cls-9" d="M67.1,133.7c-.1-.3-.8-.4-1.4-.4v4.2a1.81,1.81,0,0,0,1.3-.2C67.5,137,67.5,134.5,67.1,133.7Z" transform="translate(-43.2 -108.1)"/><path class="cls-8" d="M62.6,135c.4-1.2,2.4-1.6,2.4-1.6.8-.2,1.9-.2,2.2.3a13,13,0,0,1,.3,1.3Z" transform="translate(-43.2 -108.1)"/><path class="cls-3" d="M72.6,129.3a2.47,2.47,0,0,1-2.6,2.3H48.2c-1.4,0-5-1-5-2.3v-1.2c0-1.3,3.8-2.3,5.2-2.3H70a2.47,2.47,0,0,1,2.6,2.3Z" transform="translate(-43.2 -108.1)"/><path class="cls-10" d="M70,125.8H57.8v5.8H70a2.47,2.47,0,0,0,2.6-2.3v-1.2A2.47,2.47,0,0,0,70,125.8Z" transform="translate(-43.2 -108.1)"/><path class="cls-10" d="M67.7,129a3.24,3.24,0,0,1-2,2.9l-4.9.6a1.92,1.92,0,0,1-2-1.9v-3.9a2,2,0,0,1,2-1.9l4.9.6c1.1,0,2,1.8,2,2.8Z" transform="translate(-43.2 -108.1)"/><path class="cls-11" d="M61.5,125l-.6-.1a1.92,1.92,0,0,0-2,1.9v3.9a2,2,0,0,0,2,1.9l.6-.1Z" transform="translate(-43.2 -108.1)"/><path class="cls-12" d="M61.5,125l-.6-.1h-.2v7.6h.2l.6-.1Z" transform="translate(-43.2 -108.1)"/><path class="cls-3" d="M73.5,128.4l-7.3-.3a18.64,18.64,0,0,0,.8,5.5c.7,2.3,2.3,4.9,3.7,7.7l1.1-1s-1.3-4.6-.4-5.6S73.8,130.3,73.5,128.4Z" transform="translate(-43.2 -108.1)"/><path class="cls-12" d="M67,145.7c-.2-1.9-.9-3.3-1.4-3.3s-.8,1.6-.6,3.5.9,3.3,1.4,3.3S67.2,147.6,67,145.7Z" transform="translate(-43.2 -108.1)"/><path class="cls-13" d="M67,145.7c.2,1.9,0,3.4-.6,3.5h-.1c.4-.4.6-1.8.4-3.4s-.8-3.1-1.3-3.2c.1-.1.1-.1.2-.1C66.1,142.4,66.7,143.9,67,145.7Z" transform="translate(-43.2 -108.1)"/><path class="cls-14" d="M65,145.9a.37.37,0,0,1-.3-.1c-.2-.2-.1-.5-.1-.6h0s0-.3.1-1.2c.2-1.7.6-4.9.6-5.3,0-.6.4-.7.4-.7l5.5-1.4v.2l-5.5,1.4a.5.5,0,0,0-.3.5c0,.4-.4,3.5-.6,5.3a9.4,9.4,0,0,0-.1,1.2v.1c0,.1,0,.4.1.5a.35.35,0,0,0,.2.1Z" transform="translate(-43.2 -108.1)"/><path class="cls-15" d="M73.6,146.3a.37.37,0,0,1-.2.5l-.9.3c-.2.1-.4-.1-.5-.3l-1.7-6a.37.37,0,0,1,.2-.5l.9-.3c.2-.1.4.1.5.3Z" transform="translate(-43.2 -108.1)"/><path class="cls-16" d="M72.2,139.9c0,.1,0,.2-.1.2l-2.1.6a.22.22,0,0,1-.2-.2h0c0-.1,0-.2.1-.2l2.1-.6.2.2Z" transform="translate(-43.2 -108.1)"/><path class="cls-3" d="M73.5,128.7l-7.3-.5a13.16,13.16,0,0,1,.7-4.3c.7-2.2,2.3-4.8,3.9-7.8l1.1,1s-1.3,4.6-.4,5.6S73.8,126.8,73.5,128.7Z" transform="translate(-43.2 -108.1)"/><path class="cls-12" d="M67,111.6c-.2,1.9-.9,3.3-1.4,3.3s-.8-1.6-.6-3.5.9-3.3,1.4-3.3S67.2,109.8,67,111.6Z" transform="translate(-43.2 -108.1)"/><path class="cls-13" d="M67,111.6c.2-1.9,0-3.4-.6-3.5h-.1c.4.4.6,1.8.4,3.4s-.8,3.1-1.3,3.2c.1,0,.1.1.2.1C66.1,114.9,66.7,113.5,67,111.6Z" transform="translate(-43.2 -108.1)"/><path class="cls-14" d="M71.2,121.2l-5.5-1.8h0s-.4-.1-.4-.7c0-.4-.4-3.6-.6-5.3-.1-1-.1-1.2-.1-1.2h0c0-.1-.1-.4.1-.6a.37.37,0,0,1,.3-.1v.2c-.1,0-.1,0-.2.1s-.1.4-.1.5v.1a8.37,8.37,0,0,1,.1,1.2c.2,1.9.6,5,.6,5.3a.5.5,0,0,0,.3.5l5.5,1.8Z" transform="translate(-43.2 -108.1)"/><path class="cls-15" d="M73.6,111.1a.37.37,0,0,0-.2-.5l-.9-.3c-.2-.1-.4.1-.5.3l-1.7,6a.37.37,0,0,0,.2.5l.9.3c.2.1.4-.1.5-.3Z" transform="translate(-43.2 -108.1)"/><path class="cls-16" d="M72.2,117.5c0-.1,0-.2-.1-.2l-2.1-.6c-.1,0-.2,0-.2.2h0c0,.1,0,.2.1.2l2.1.6.2-.2Z" transform="translate(-43.2 -108.1)"/><path class="cls-17" d="M73.3,128.1c0,1.9-1,3.5-2.3,3.5s-2.3-1.6-2.3-3.5,1-3.5,2.3-3.5S73.3,126.2,73.3,128.1Z" transform="translate(-43.2 -108.1)"/><path class="cls-17" d="M73.3,128.1c0,1.9-1,3.5-2.3,3.5s-2.3-1.6-2.3-3.5,1-3.5,2.3-3.5S73.3,126.2,73.3,128.1Z" transform="translate(-43.2 -108.1)"/><path class="cls-18" d="M73.3,128.1c0,1.4-.8,2.6-1.7,2.6s-1.7-1.2-1.7-2.6.8-2.6,1.7-2.6S73.3,126.7,73.3,128.1Z" transform="translate(-43.2 -108.1)"/><path class="cls-3" d="M117.6,134.9c0,.3-.5.6-1,.6h0c-.6,0-1-.2-1-.6V123c0-.3.5-.6,1-.6h0c.6,0,1,.2,1,.6Z" transform="translate(-43.2 -108.1)"/><path class="cls-7" d="M121.9,126.7q0,.3-.6.3h0c-.3,0-.6-.1-.6-.3v-4.4q0-.3.6-.3h0c.3,0,.6.1.6.3Z" transform="translate(-43.2 -108.1)"/><path class="cls-7" d="M124.6,122.4a.79.79,0,0,1-.8.8h-2.3a.79.79,0,0,1-.8-.8h0a.79.79,0,0,1,.8-.8h2.3a.79.79,0,0,1,.8.8Z" transform="translate(-43.2 -108.1)"/><path class="cls-8" d="M124.6,120.5s2.9.6,2.4,2.5c-.3,1-3.4,1.9-4.4,1.4-.4-.2-.5-2.7-.1-3.6C122.7,120.3,123.8,120.3,124.6,120.5Z" transform="translate(-43.2 -108.1)"/><path class="cls-9" d="M122.5,120.8c.1-.3.8-.4,1.4-.4v4.2a1.81,1.81,0,0,1-1.3-.2C122.1,124.1,122.1,121.6,122.5,120.8Z" transform="translate(-43.2 -108.1)"/><path class="cls-8" d="M127,122.1c-.4-1.2-2.4-1.6-2.4-1.6-.8-.2-1.9-.2-2.2.3a13,13,0,0,0-.3,1.3Z" transform="translate(-43.2 -108.1)"/><path class="cls-7" d="M121.9,130.7q0-.3-.6-.3h0c-.3,0-.6.1-.6.3v4.4q0,.3.6.3h0c.3,0,.6-.1.6-.3Z" transform="translate(-43.2 -108.1)"/><path class="cls-7" d="M124.6,134.9a.79.79,0,0,0-.8-.8h-2.3a.79.79,0,0,0-.8.8h0a.79.79,0,0,0,.8.8h2.3a.74.74,0,0,0,.8-.8Z" transform="translate(-43.2 -108.1)"/><path class="cls-8" d="M124.6,136.9s2.9-.6,2.4-2.5c-.3-1-3.4-1.9-4.4-1.4-.4.2-.5,2.7-.1,3.6C122.7,137.1,123.8,137.1,124.6,136.9Z" transform="translate(-43.2 -108.1)"/><path class="cls-9" d="M122.5,136.6c.1.3.8.4,1.4.4v-4.2a1.81,1.81,0,0,0-1.3.2C122.1,133.2,122.1,135.7,122.5,136.6Z" transform="translate(-43.2 -108.1)"/><path class="cls-8" d="M127,135.2c-.4,1.2-2.4,1.6-2.4,1.6-.8.2-1.9.2-2.2-.3a13,13,0,0,1-.3-1.3Z" transform="translate(-43.2 -108.1)"/><path class="cls-3" d="M118.7,122.8a1.9,1.9,0,1,1-1.9-1.9A2,2,0,0,1,118.7,122.8Z" transform="translate(-43.2 -108.1)"/><path class="cls-3" d="M118.7,134.2a1.9,1.9,0,1,1-1.9-1.9A1.9,1.9,0,0,1,118.7,134.2Z" transform="translate(-43.2 -108.1)"/><path class="cls-3" d="M138.6,129.1a2.47,2.47,0,0,1-2.6,2.3H114.3c-1.4,0-5-1-5-2.3v-1.2c0-1.3,3.8-2.3,5.2-2.3H136a2.47,2.47,0,0,1,2.6,2.3Z" transform="translate(-43.2 -108.1)"/><rect class="cls-8" x="84.6" y="17.3" width="6" height="6.1"/><rect class="cls-9" x="84.6" y="17.3" width="2.4" height="6.1"/><rect class="cls-8" x="84.6" y="17.3" width="6" height="1.6"/><path class="cls-19" d="M129.8,123.2H114.9a2.24,2.24,0,0,0-2.2,2.3v6.1a2.24,2.24,0,0,0,2.2,2.3h14.9a2.24,2.24,0,0,0,2.2-2.3v-6.1A2.24,2.24,0,0,0,129.8,123.2Zm1.6,7.9a2,2,0,0,1-2,2H115.7a2,2,0,0,1-2-2v-5.2a2,2,0,0,1,2-2h13.7a2,2,0,0,1,2,2Z" transform="translate(-43.2 -108.1)"/><path class="cls-19" d="M118.7,133.3a.47.47,0,0,1-.5.5h0a.47.47,0,0,1-.5-.5v-9.5a.47.47,0,0,1,.5-.5h0a.47.47,0,0,1,.5.5Z" transform="translate(-43.2 -108.1)"/><path class="cls-19" d="M123.3,133.3a.47.47,0,0,1-.5.5h0a.47.47,0,0,1-.5-.5v-9.5a.47.47,0,0,1,.5-.5h0a.47.47,0,0,1,.5.5Z" transform="translate(-43.2 -108.1)"/><path class="cls-19" d="M128,133.3a.47.47,0,0,1-.5.5h0a.47.47,0,0,1-.5-.5v-9.5a.47.47,0,0,1,.5-.5h0a.47.47,0,0,1,.5.5Z" transform="translate(-43.2 -108.1)"/><path class="cls-20" d="M112.7,125.3a3.73,3.73,0,0,0-1.2-3.1c-1.9-1.4-5.8-.1-7.9.4-2.5.6-4.4,1.1-6.9,1.9-1.3.4-2.9.7-4.2,1.2-.9.3-2.4,1.9-2.2,3.1a3.93,3.93,0,0,0,2.1,2.7c1.3.5,3.8,1.2,5.1,1.6,2.5.8,3.5.9,6,1.5,2.1.5,5.9,1.8,7.9.4a3.73,3.73,0,0,0,1.2-3.1v-3.3C112.7,127.9,112.7,125.3,112.7,125.3Z" transform="translate(-43.2 -108.1)"/><path class="cls-21" d="M97.5,130.4v-4.2c-.1-.5-1.1-.1-1.4,0l-1.2.3c-.2,0-.4.1-.6.1a.1.1,0,0,1-.1.1h0v.1a.1.1,0,0,1-.1.1v3.7l.3.3c.2,0,.4.1.6.1a5,5,0,0,0,1.2.2c.2,0,.4.1.6.1s.3.1.5,0h0A1.08,1.08,0,0,0,97.5,130.4Z" transform="translate(-43.2 -108.1)"/><path class="cls-21" d="M93.4,130.5a.6.6,0,0,0,.4-.1h0V127c0-.1,0-.2-.1-.2s-.1-.1-.2-.1l-1.2.3c-.4.1-1.1.1-1.1.6v1.8a.75.75,0,0,0,.1.5c.2.2.5.2.8.3.5.1.9.2,1.3.3Z" transform="translate(-43.2 -108.1)"/><path class="cls-21" d="M104.2,124.6a.37.37,0,0,0-.3-.1l-5.6,1.2a1,1,0,0,0-.4.5v5c0,.1.1.2.2.3s.1.1.2.1l2.2.6c1.1.3,2.2.6,3.2.8.2,0,.3,0,.4-.1a.37.37,0,0,0,.1-.3v-8Z" transform="translate(-43.2 -108.1)"/><path class="cls-21" d="M110.6,133.8V123.3a.76.76,0,0,0-.4-.2c-1.7.4-3.4.7-5.1,1.1-.2.1-.4.1-.5.3a.37.37,0,0,0-.1.3v8.1c.1.1.2.3.3.3a.1.1,0,0,1,.1.1c1.6.4,3.3.8,5,1.1C110.4,134.3,110.6,134.1,110.6,133.8Z" transform="translate(-43.2 -108.1)"/></g></svg>